<?xml version="1.0" encoding="UTF-8"?>
<!DOCTYPE svg PUBLIC "-//W3C//DTD SVG 1.1//EN" "http://www.w3.org/Graphics/SVG/1.1/DTD/svg11.dtd">
<!-- Creator: CorelDRAW 2021.5 -->
<svg xmlns="http://www.w3.org/2000/svg" xml:space="preserve" width="23.44mm" height="19.31mm" version="1.1" style="shape-rendering:geometricPrecision; text-rendering:geometricPrecision; image-rendering:optimizeQuality; fill-rule:evenodd; clip-rule:evenodd"
viewBox="0 0 467.77 385.35"
 xmlns:xlink="http://www.w3.org/1999/xlink"
 xmlns:xodm="http://www.corel.com/coreldraw/odm/2003">
 <defs>
  <style type="text/css">
   <![CDATA[
    .fil1 {fill:none}
    .fil0 {fill:#D8E3FF}
   ]]>
  </style>
   <clipPath id="id0">
    <path d="M-0 0l467.77 0 0 385.35 -467.77 0 0 -385.35z"/>
   </clipPath>
    <clipPath id="id1">
     <path d="M233.35 5.79c101.41,0 183.62,82.21 183.62,183.62 0,101.41 -82.21,183.62 -183.62,183.62 -101.41,0 -183.62,-82.21 -183.62,-183.62 0,-101.41 82.21,-183.62 183.62,-183.62z"/>
    </clipPath>
     <clipPath id="id2">
      <path d="M233.35 5.79c101.41,0 183.62,82.21 183.62,183.62 0,101.41 -82.21,183.62 -183.62,183.62 -101.41,0 -183.62,-82.21 -183.62,-183.62 0,-101.41 82.21,-183.62 183.62,-183.62z"/>
     </clipPath>
      <clipPath id="id3">
       <path d="M313.1 23.97c51.7,24.97 89.9,73.46 100.74,131.57l0 67.74c-6.62,35.51 -23.46,67.43 -47.35,92.58l-266.28 0c-25.62,-26.97 -43.12,-61.71 -48.62,-100.32l0 -52.25c8.77,-61.53 48.03,-113.24 102.01,-139.31l159.51 0z"/>
      </clipPath>
      <clipPath id="id4">
       <path d="M233.35 5.79c101.41,0 183.62,82.21 183.62,183.62 0,101.41 -82.21,183.62 -183.62,183.62 -101.41,0 -183.62,-82.21 -183.62,-183.62 0,-101.41 82.21,-183.62 183.62,-183.62z"/>
      </clipPath>
     <clipPath id="id5">
      <path d="M233.35 5.79c101.41,0 183.62,82.21 183.62,183.62 0,101.41 -82.21,183.62 -183.62,183.62 -101.41,0 -183.62,-82.21 -183.62,-183.62 0,-101.41 82.21,-183.62 183.62,-183.62z"/>
     </clipPath>
    <clipPath id="id6">
     <path d="M-0 0l467.77 0 0 385.35 -467.77 0 0 -385.35z"/>
    </clipPath>
 </defs>
 <g id="Layer_x0020_1">
  <metadata id="CorelCorpID_0Corel-Layer"/>
  <g>
  </g>
  <g style="clip-path:url(#id0)">
   <g id="_1967470037616">
    <path class="fil0" d="M233.35 5.79c101.41,0 183.62,82.21 183.62,183.62 0,101.41 -82.21,183.62 -183.62,183.62 -101.41,0 -183.62,-82.21 -183.62,-183.62 0,-101.41 82.21,-183.62 183.62,-183.62z"/>
   </g>
   <g style="clip-path:url(#id1)">
    <g>
     <g>
     </g>
    </g>
    <g style="clip-path:url(#id2)">
     <g>
     </g>
     <g style="clip-path:url(#id3)">
      <image x="51.59" y="23.97" width="362.25" height="291.88" xlink:href="logo-mini_Images\logo-mini_ImgID1.png"/>
     </g>
     <g style="clip-path:url(#id4)">
     </g>
    </g>
    <g style="clip-path:url(#id5)">
     <path class="fil1" d="M232.72 -4.01c108.92,0 197.22,88.3 197.22,197.22 0,108.92 -88.3,197.22 -197.22,197.22 -108.92,0 -197.22,-88.3 -197.22,-197.22 0,-108.92 88.3,-197.22 197.22,-197.22z"/>
    </g>
   </g>
   <g style="clip-path:url(#id6)">
    <path class="fil1" d="M233.35 5.79c101.41,0 183.62,82.21 183.62,183.62 0,101.41 -82.21,183.62 -183.62,183.62 -101.41,0 -183.62,-82.21 -183.62,-183.62 0,-101.41 82.21,-183.62 183.62,-183.62z"/>
   </g>
  </g>
  <polygon class="fil1" points="-0,0 467.77,0 467.77,385.35 -0,385.35 "/>
 </g>
</svg>
